<svg xmlns="http://www.w3.org/2000/svg" width="34.82" height="53.661" viewBox="0 0 34.82 53.661"><g transform="translate(0 0)"><path d="M153.779,217.494a5.932,5.932,0,0,0,5.365,5.14,14.488,14.488,0,0,0,4.694-.375c5.5-1.081,10.992-2.247,16.478-3.419,2.74-.586,5.462-1.255,8.193-1.887-.936-.317-.936-.317-1.566-.556-8.436-2.157-16.655-4.358-25.109-6.441a6.331,6.331,0,0,0-7.471,3.438A7.069,7.069,0,0,0,153.779,217.494Z" transform="translate(-153.687 -190.16)" fill="#595a5a"/><path d="M245.133,302.637q-4.618,5.378-9.242,10.751c-.813.939-1.684,1.829-2.552,2.718a4.184,4.184,0,0,1-6.931-1.945,4.066,4.066,0,0,1,2.245-4.828c3.183-1.489,6.42-2.866,9.654-4.243,2.208-.94,4.45-1.8,6.677-2.7Z" transform="translate(-211.203 -263.595)" fill="#595a5a"/><path d="M245.133,130.013q-4.618-5.378-9.242-10.751c-.813-.939-1.684-1.829-2.552-2.718a4.184,4.184,0,0,0-6.931,1.945,4.067,4.067,0,0,0,2.245,4.829c3.183,1.489,6.42,2.866,9.654,4.243,2.208.94,4.45,1.8,6.677,2.7Z" transform="translate(-211.203 -115.394)" fill="#595a5a"/></g></svg>